<svg aria-roledescription="flowchart-v2" role="graphics-document document" viewBox="-8 -8 1439.0625 1242.5" style="max-width: 1439.06px; background-color: white;" xmlns:xlink="http://www.w3.org/1999/xlink" xmlns="http://www.w3.org/2000/svg" width="100%" id="my-svg"><style>#my-svg{font-family:Trebuchet MS,Segoe UI,Arial,sans-serif;font-size:18px;fill:#10233d;}#my-svg .error-icon{fill:#ffffff;}#my-svg .error-text{fill:#000000;stroke:#000000;}#my-svg .edge-thickness-normal{stroke-width:2px;}#my-svg .edge-thickness-thick{stroke-width:3.5px;}#my-svg .edge-pattern-solid{stroke-dasharray:0;}#my-svg .edge-pattern-dashed{stroke-dasharray:3;}#my-svg .edge-pattern-dotted{stroke-dasharray:2;}#my-svg .marker{fill:#4b5563;stroke:#4b5563;}#my-svg .marker.cross{stroke:#4b5563;}#my-svg svg{font-family:Trebuchet MS,Segoe UI,Arial,sans-serif;font-size:18px;}#my-svg .label{font-family:Trebuchet MS,Segoe UI,Arial,sans-serif;color:#10233d;}#my-svg .cluster-label text{fill:#000000;}#my-svg .cluster-label span,#my-svg p{color:#000000;}#my-svg .label text,#my-svg span,#my-svg p{fill:#10233d;color:#10233d;}#my-svg .node rect,#my-svg .node circle,#my-svg .node ellipse,#my-svg .node polygon,#my-svg .node path{fill:#ffffff;stroke:#315ea8;stroke-width:1px;}#my-svg .flowchart-label text{text-anchor:middle;}#my-svg .node .katex path{fill:#000;stroke:#000;stroke-width:1px;}#my-svg .node .label{text-align:center;}#my-svg .node.clickable{cursor:pointer;}#my-svg .arrowheadPath{fill:#000000;}#my-svg .edgePath .path{stroke:#4b5563;stroke-width:2.0px;}#my-svg .flowchart-link{stroke:#4b5563;fill:none;}#my-svg .edgeLabel{background-color:#f3f4f6;text-align:center;}#my-svg .edgeLabel rect{opacity:0.5;background-color:#f3f4f6;fill:#f3f4f6;}#my-svg .labelBkg{background-color:rgba(243, 244, 246, 0.5);}#my-svg .cluster rect{fill:#f8fafc;stroke:#cbd5e1;stroke-width:1px;}#my-svg .cluster text{fill:#000000;}#my-svg .cluster span,#my-svg p{color:#000000;}#my-svg div.mermaidTooltip{position:absolute;text-align:center;max-width:200px;padding:2px;font-family:Trebuchet MS,Segoe UI,Arial,sans-serif;font-size:12px;background:#ffffff;border:1px solid hsl(0, 0%, 90%);border-radius:2px;pointer-events:none;z-index:100;}#my-svg .flowchartTitleText{text-anchor:middle;font-size:18px;fill:#10233d;}#my-svg :root{--mermaid-font-family:"trebuchet ms",verdana,arial,sans-serif;}#my-svg .patient&gt;*{fill:#f3f4f6!important;stroke:#4b5563!important;stroke-width:1.5px!important;color:#111827!important;}#my-svg .patient span{fill:#f3f4f6!important;stroke:#4b5563!important;stroke-width:1.5px!important;color:#111827!important;}#my-svg .patient tspan{fill:#111827!important;}#my-svg .intake&gt;*{fill:#d9f2e6!important;stroke:#1f6f4a!important;stroke-width:1.5px!important;color:#0d2f21!important;}#my-svg .intake span{fill:#d9f2e6!important;stroke:#1f6f4a!important;stroke-width:1.5px!important;color:#0d2f21!important;}#my-svg .intake tspan{fill:#0d2f21!important;}#my-svg .coord&gt;*{fill:#e7eefb!important;stroke:#2b5fb3!important;stroke-width:1.5px!important;color:#12294d!important;}#my-svg .coord span{fill:#e7eefb!important;stroke:#2b5fb3!important;stroke-width:1.5px!important;color:#12294d!important;}#my-svg .coord tspan{fill:#12294d!important;}#my-svg .lab&gt;*{fill:#fff1d6!important;stroke:#b7791f!important;stroke-width:1.5px!important;color:#4a2b00!important;}#my-svg .lab span{fill:#fff1d6!important;stroke:#b7791f!important;stroke-width:1.5px!important;color:#4a2b00!important;}#my-svg .lab tspan{fill:#4a2b00!important;}#my-svg .radiology&gt;*{fill:#f9e0e0!important;stroke:#b83232!important;stroke-width:1.5px!important;color:#4a1515!important;}#my-svg .radiology span{fill:#f9e0e0!important;stroke:#b83232!important;stroke-width:1.5px!important;color:#4a1515!important;}#my-svg .radiology tspan{fill:#4a1515!important;}#my-svg .clinical&gt;*{fill:#ece7ff!important;stroke:#5b43b5!important;stroke-width:1.5px!important;color:#24154a!important;}#my-svg .clinical span{fill:#ece7ff!important;stroke:#5b43b5!important;stroke-width:1.5px!important;color:#24154a!important;}#my-svg .clinical tspan{fill:#24154a!important;}</style><g><marker orient="auto" markerHeight="12" markerWidth="12" markerUnits="userSpaceOnUse" refY="5" refX="6" viewBox="0 0 10 10" class="marker flowchart" id="my-svg_flowchart-pointEnd"><path style="stroke-width: 1; stroke-dasharray: 1, 0;" class="arrowMarkerPath" d="M 0 0 L 10 5 L 0 10 z"/></marker><marker orient="auto" markerHeight="12" markerWidth="12" markerUnits="userSpaceOnUse" refY="5" refX="4.5" viewBox="0 0 10 10" class="marker flowchart" id="my-svg_flowchart-pointStart"><path style="stroke-width: 1; stroke-dasharray: 1, 0;" class="arrowMarkerPath" d="M 0 5 L 10 10 L 10 0 z"/></marker><marker orient="auto" markerHeight="11" markerWidth="11" markerUnits="userSpaceOnUse" refY="5" refX="11" viewBox="0 0 10 10" class="marker flowchart" id="my-svg_flowchart-circleEnd"><circle style="stroke-width: 1; stroke-dasharray: 1, 0;" class="arrowMarkerPath" r="5" cy="5" cx="5"/></marker><marker orient="auto" markerHeight="11" markerWidth="11" markerUnits="userSpaceOnUse" refY="5" refX="-1" viewBox="0 0 10 10" class="marker flowchart" id="my-svg_flowchart-circleStart"><circle style="stroke-width: 1; stroke-dasharray: 1, 0;" class="arrowMarkerPath" r="5" cy="5" cx="5"/></marker><marker orient="auto" markerHeight="11" markerWidth="11" markerUnits="userSpaceOnUse" refY="5.2" refX="12" viewBox="0 0 11 11" class="marker cross flowchart" id="my-svg_flowchart-crossEnd"><path style="stroke-width: 2; stroke-dasharray: 1, 0;" class="arrowMarkerPath" d="M 1,1 l 9,9 M 10,1 l -9,9"/></marker><marker orient="auto" markerHeight="11" markerWidth="11" markerUnits="userSpaceOnUse" refY="5.2" refX="-1" viewBox="0 0 11 11" class="marker cross flowchart" id="my-svg_flowchart-crossStart"><path style="stroke-width: 2; stroke-dasharray: 1, 0;" class="arrowMarkerPath" d="M 1,1 l 9,9 M 10,1 l -9,9"/></marker><g class="root"><g class="clusters"><g id="Clinical" class="cluster default flowchart-label"><rect height="188" width="1230.30078125" y="1038.5" x="59.77734375" ry="0" rx="0" style=""/><g transform="translate(510.341796875, 1038.5)" class="cluster-label"><foreignObject height="21" width="329.171875"><div style="display: inline-block; white-space: nowrap;" xmlns="http://www.w3.org/1999/xhtml"><span class="nodeLabel">Doctor and Decision Support Department</span></div></foreignObject></g></g><g id="Radiology" class="cluster default flowchart-label"><rect height="431" width="667.171875" y="552.5" x="0" ry="0" rx="0" style=""/><g transform="translate(244.03125, 552.5)" class="cluster-label"><foreignObject height="21" width="179.109375"><div style="display: inline-block; white-space: nowrap;" xmlns="http://www.w3.org/1999/xhtml"><span class="nodeLabel">Radiology Department</span></div></foreignObject></g></g><g id="Lab" class="cluster default flowchart-label"><rect height="188" width="512.890625" y="795.5" x="731.76171875" ry="0" rx="0" style=""/><g transform="translate(863.62109375, 795.5)" class="cluster-label"><foreignObject height="21" width="249.171875"><div style="display: inline-block; white-space: nowrap;" xmlns="http://www.w3.org/1999/xhtml"><span class="nodeLabel">Lab and Pathology Department</span></div></foreignObject></g></g><g id="Coordination" class="cluster default flowchart-label"><rect height="215.5" width="691.87109375" y="431" x="731.19140625" ry="0" rx="0" style=""/><g transform="translate(896.017578125, 431)" class="cluster-label"><foreignObject height="21" width="362.21875"><div style="display: inline-block; white-space: nowrap;" xmlns="http://www.w3.org/1999/xhtml"><span class="nodeLabel">Pre-Consultation and Scheduling Department</span></div></foreignObject></g></g><g id="Intake" class="cluster default flowchart-label"><rect height="282" width="746.28515625" y="94" x="575.14453125" ry="0" rx="0" style=""/><g transform="translate(810.216796875, 94)" class="cluster-label"><foreignObject height="21" width="276.140625"><div style="display: inline-block; white-space: nowrap;" xmlns="http://www.w3.org/1999/xhtml"><span class="nodeLabel">Front Desk and Intake Department</span></div></foreignObject></g></g></g><g class="edgePaths"><path marker-end="url(#my-svg_flowchart-pointEnd)" style="fill:none;" class="edge-thickness-normal edge-pattern-solid flowchart-link LS-P LE-RA" id="L-P-RA-0" d="M893.254,39L893.254,43.583C893.254,48.167,893.254,57.333,893.254,66.5C893.254,75.667,893.254,84.833,893.254,93.117C893.254,101.4,893.254,108.8,893.254,112.5L893.254,116.2"/><path marker-end="url(#my-svg_flowchart-pointEnd)" style="fill:none;" class="edge-thickness-normal edge-pattern-solid flowchart-link LS-RA LE-SCS" id="L-RA-SCS-0" d="M975.801,155.052L1008.061,160.543C1040.32,166.034,1104.84,177.017,1137.1,190.342C1169.359,203.667,1169.359,219.333,1169.359,235C1169.359,250.667,1169.359,266.333,1169.359,277.867C1169.359,289.4,1169.359,296.8,1169.359,300.5L1169.359,304.2"/><path marker-end="url(#my-svg_flowchart-pointEnd)" style="fill:none;" class="edge-thickness-normal edge-pattern-solid flowchart-link LS-RA LE-HFA" id="L-RA-HFA-0" d="M830.164,160.5L815.335,165.083C800.507,169.667,770.849,178.833,756.02,187.117C741.191,195.4,741.191,202.8,741.191,206.5L741.191,210.2"/><path marker-end="url(#my-svg_flowchart-pointEnd)" style="fill:none;" class="edge-thickness-normal edge-pattern-solid flowchart-link LS-HFA LE-HNS" id="L-HFA-HNS-0" d="M792.656,254.5L804.752,259.083C816.849,263.667,841.042,272.833,853.138,281.117C865.234,289.4,865.234,296.8,865.234,300.5L865.234,304.2"/><path marker-end="url(#my-svg_flowchart-pointEnd)" style="fill:none;" class="edge-thickness-normal edge-pattern-solid flowchart-link LS-SCS LE-PCC" id="L-SCS-PCC-0" d="M1169.359,348.5L1169.359,353.083C1169.359,357.667,1169.359,366.833,1169.359,376C1169.359,385.167,1169.359,394.333,1169.359,403.5C1169.359,412.667,1169.359,421.833,1151.973,430.785C1134.587,439.736,1099.814,448.472,1082.428,452.84L1065.041,457.209"/><path marker-end="url(#my-svg_flowchart-pointEnd)" style="fill:none;" class="edge-thickness-normal edge-pattern-solid flowchart-link LS-HNS LE-PCC" id="L-HNS-PCC-0" d="M865.234,348.5L865.234,353.083C865.234,357.667,865.234,366.833,865.234,376C865.234,385.167,865.234,394.333,865.234,403.5C865.234,412.667,865.234,421.833,875.829,430.671C886.424,439.508,907.614,448.017,918.208,452.271L928.803,456.525"/><path marker-end="url(#my-svg_flowchart-pointEnd)" style="fill:none;" class="edge-thickness-normal edge-pattern-solid flowchart-link LS-PCC LE-AAS" id="L-PCC-AAS-0" d="M1100.512,497.5L1128.3,502.083C1156.089,506.667,1211.665,515.833,1239.454,525C1267.242,534.167,1267.242,543.333,1267.242,551.617C1267.242,559.9,1267.242,567.3,1267.242,571L1267.242,574.7"/><path marker-end="url(#my-svg_flowchart-pointEnd)" style="fill:none;" class="edge-thickness-normal edge-pattern-solid flowchart-link LS-PCC LE-LC" id="L-PCC-LC-0" d="M982.285,497.5L982.285,502.083C982.285,506.667,982.285,515.833,982.285,525C982.285,534.167,982.285,543.333,982.285,555.75C982.285,568.167,982.285,583.833,982.285,599.5C982.285,615.167,982.285,630.833,982.285,643.25C982.285,655.667,982.285,664.833,982.285,677.25C982.285,689.667,982.285,705.333,982.285,721C982.285,736.667,982.285,752.333,982.285,764.75C982.285,777.167,982.285,786.333,982.285,794.617C982.285,802.9,982.285,810.3,982.285,814L982.285,817.7"/><path marker-end="url(#my-svg_flowchart-pointEnd)" style="fill:none;" class="edge-thickness-normal edge-pattern-solid flowchart-link LS-PCC LE-MRI" id="L-PCC-MRI-0" d="M929.573,497.5L917.183,502.083C904.793,506.667,880.014,515.833,867.624,525C855.234,534.167,855.234,543.333,781.253,554.868C707.272,566.403,559.31,580.307,485.328,587.258L411.347,594.21"/><path marker-end="url(#my-svg_flowchart-pointEnd)" style="fill:none;" class="edge-thickness-normal edge-pattern-solid flowchart-link LS-LC LE-BTA" id="L-LC-BTA-0" d="M1037.868,862L1050.932,866.583C1063.997,871.167,1090.125,880.333,1103.19,888.617C1116.254,896.9,1116.254,904.3,1116.254,908L1116.254,911.7"/><path marker-end="url(#my-svg_flowchart-pointEnd)" style="fill:none;" class="edge-thickness-normal edge-pattern-solid flowchart-link LS-LC LE-BCA" id="L-LC-BCA-0" d="M935.619,862L924.651,866.583C913.682,871.167,891.746,880.333,880.777,888.617C869.809,896.9,869.809,904.3,869.809,908L869.809,911.7"/><path marker-end="url(#my-svg_flowchart-pointEnd)" style="fill:none;" class="edge-thickness-normal edge-pattern-solid flowchart-link LS-MRI LE-MAS" id="L-MRI-MAS-0" d="M406.07,614.162L424.827,619.551C443.583,624.941,481.096,635.721,499.853,645.694C518.609,655.667,518.609,664.833,518.609,673.117C518.609,681.4,518.609,688.8,518.609,692.5L518.609,696.2"/><path marker-end="url(#my-svg_flowchart-pointEnd)" style="fill:none;" class="edge-thickness-normal edge-pattern-solid flowchart-link LS-MRI LE-MCA" id="L-MRI-MCA-0" d="M313.746,619L304.038,623.583C294.33,628.167,274.915,637.333,265.208,646.5C255.5,655.667,255.5,664.833,255.5,673.117C255.5,681.4,255.5,688.8,255.5,692.5L255.5,696.2"/><path marker-end="url(#my-svg_flowchart-pointEnd)" style="fill:none;" class="edge-thickness-normal edge-pattern-solid flowchart-link LS-MCA LE-MCP" id="L-MCA-MCP-0" d="M330.043,740.5L347.564,745.083C365.085,749.667,400.126,758.833,417.647,768C435.168,777.167,435.168,786.333,435.168,794.617C435.168,802.9,435.168,810.3,435.168,814L435.168,817.7"/><path marker-end="url(#my-svg_flowchart-pointEnd)" style="fill:none;" class="edge-thickness-normal edge-pattern-solid flowchart-link LS-MCA LE-ICS" id="L-MCA-ICS-0" d="M215.693,740.5L206.337,745.083C196.98,749.667,178.267,758.833,168.911,768C159.555,777.167,159.555,786.333,159.555,794.617C159.555,802.9,159.555,810.3,159.555,814L159.555,817.7"/><path marker-end="url(#my-svg_flowchart-pointEnd)" style="fill:none;" class="edge-thickness-normal edge-pattern-solid flowchart-link LS-ICS LE-IC" id="L-ICS-IC-0" d="M159.555,862L159.555,866.583C159.555,871.167,159.555,880.333,159.555,888.617C159.555,896.9,159.555,904.3,159.555,908L159.555,911.7"/><path marker-end="url(#my-svg_flowchart-pointEnd)" style="fill:none;" class="edge-thickness-normal edge-pattern-solid flowchart-link LS-BTA LE-DDA" id="L-BTA-DDA-0" d="M1116.254,956L1116.254,960.583C1116.254,965.167,1116.254,974.333,1116.254,983.5C1116.254,992.667,1116.254,1001.833,1116.254,1011C1116.254,1020.167,1116.254,1029.333,1093.089,1038.335C1069.924,1047.336,1023.594,1056.171,1000.428,1060.589L977.263,1065.007"/><path marker-end="url(#my-svg_flowchart-pointEnd)" style="fill:none;" class="edge-thickness-normal edge-pattern-solid flowchart-link LS-BCA LE-DDA" id="L-BCA-DDA-0" d="M869.809,956L869.809,960.583C869.809,965.167,869.809,974.333,869.809,983.5C869.809,992.667,869.809,1001.833,869.809,1011C869.809,1020.167,869.809,1029.333,869.809,1037.617C869.809,1045.9,869.809,1053.3,869.809,1057L869.809,1060.7"/><path marker-end="url(#my-svg_flowchart-pointEnd)" style="fill:none;" class="edge-thickness-normal edge-pattern-solid flowchart-link LS-IC LE-DDA" id="L-IC-DDA-0" d="M159.555,956L159.555,960.583C159.555,965.167,159.555,974.333,159.555,983.5C159.555,992.667,159.555,1001.833,159.555,1011C159.555,1020.167,159.555,1029.333,259.122,1040.505C358.689,1051.677,557.823,1064.855,657.39,1071.444L756.958,1078.032"/><path marker-end="url(#my-svg_flowchart-pointEnd)" style="fill:none;" class="edge-thickness-normal edge-pattern-solid flowchart-link LS-HFA LE-DDA" id="L-HFA-DDA-0" d="M718.779,254.5L713.511,259.083C708.243,263.667,697.708,272.833,692.44,285.25C687.172,297.667,687.172,313.333,687.172,329C687.172,344.667,687.172,360.333,687.172,372.75C687.172,385.167,687.172,394.333,687.172,403.5C687.172,412.667,687.172,421.833,687.172,434.25C687.172,446.667,687.172,462.333,687.172,478C687.172,493.667,687.172,509.333,687.172,521.75C687.172,534.167,687.172,543.333,687.172,555.75C687.172,568.167,687.172,583.833,687.172,599.5C687.172,615.167,687.172,630.833,687.172,643.25C687.172,655.667,687.172,664.833,687.172,677.25C687.172,689.667,687.172,705.333,687.172,721C687.172,736.667,687.172,752.333,687.172,764.75C687.172,777.167,687.172,786.333,687.172,798.75C687.172,811.167,687.172,826.833,687.172,842.5C687.172,858.167,687.172,873.833,687.172,889.5C687.172,905.167,687.172,920.833,687.172,936.5C687.172,952.167,687.172,967.833,687.172,980.25C687.172,992.667,687.172,1001.833,687.172,1011C687.172,1020.167,687.172,1029.333,704.127,1038.28C721.082,1047.226,754.991,1055.953,771.946,1060.316L788.901,1064.679"/><path marker-end="url(#my-svg_flowchart-pointEnd)" style="fill:none;" class="edge-thickness-normal edge-pattern-solid flowchart-link LS-AAS LE-DDA" id="L-AAS-DDA-0" d="M1267.242,619L1267.242,623.583C1267.242,628.167,1267.242,637.333,1267.242,646.5C1267.242,655.667,1267.242,664.833,1267.242,677.25C1267.242,689.667,1267.242,705.333,1267.242,721C1267.242,736.667,1267.242,752.333,1267.242,764.75C1267.242,777.167,1267.242,786.333,1267.242,798.75C1267.242,811.167,1267.242,826.833,1267.242,842.5C1267.242,858.167,1267.242,873.833,1267.242,889.5C1267.242,905.167,1267.242,920.833,1267.242,936.5C1267.242,952.167,1267.242,967.833,1267.242,980.25C1267.242,992.667,1267.242,1001.833,1267.242,1011C1267.242,1020.167,1267.242,1029.333,1219.808,1039.526C1172.373,1049.719,1077.504,1060.938,1030.069,1066.548L982.634,1072.157"/><path marker-end="url(#my-svg_flowchart-pointEnd)" style="fill:none;" class="edge-thickness-normal edge-pattern-solid flowchart-link LS-DDA LE-TRA" id="L-DDA-TRA-0" d="M869.809,1105L869.809,1109.583C869.809,1114.167,869.809,1123.333,869.809,1131.617C869.809,1139.9,869.809,1147.3,869.809,1151L869.809,1154.7"/></g><g class="edgeLabels"><g class="edgeLabel"><g transform="translate(0, 0)" class="label"><foreignObject height="0" width="0"><div style="display: inline-block; white-space: nowrap;" xmlns="http://www.w3.org/1999/xhtml"><span class="edgeLabel"></span></div></foreignObject></g></g><g class="edgeLabel"><g transform="translate(0, 0)" class="label"><foreignObject height="0" width="0"><div style="display: inline-block; white-space: nowrap;" xmlns="http://www.w3.org/1999/xhtml"><span class="edgeLabel"></span></div></foreignObject></g></g><g class="edgeLabel"><g transform="translate(0, 0)" class="label"><foreignObject height="0" width="0"><div style="display: inline-block; white-space: nowrap;" xmlns="http://www.w3.org/1999/xhtml"><span class="edgeLabel"></span></div></foreignObject></g></g><g class="edgeLabel"><g transform="translate(0, 0)" class="label"><foreignObject height="0" width="0"><div style="display: inline-block; white-space: nowrap;" xmlns="http://www.w3.org/1999/xhtml"><span class="edgeLabel"></span></div></foreignObject></g></g><g class="edgeLabel"><g transform="translate(0, 0)" class="label"><foreignObject height="0" width="0"><div style="display: inline-block; white-space: nowrap;" xmlns="http://www.w3.org/1999/xhtml"><span class="edgeLabel"></span></div></foreignObject></g></g><g class="edgeLabel"><g transform="translate(0, 0)" class="label"><foreignObject height="0" width="0"><div style="display: inline-block; white-space: nowrap;" xmlns="http://www.w3.org/1999/xhtml"><span class="edgeLabel"></span></div></foreignObject></g></g><g class="edgeLabel"><g transform="translate(0, 0)" class="label"><foreignObject height="0" width="0"><div style="display: inline-block; white-space: nowrap;" xmlns="http://www.w3.org/1999/xhtml"><span class="edgeLabel"></span></div></foreignObject></g></g><g class="edgeLabel"><g transform="translate(0, 0)" class="label"><foreignObject height="0" width="0"><div style="display: inline-block; white-space: nowrap;" xmlns="http://www.w3.org/1999/xhtml"><span class="edgeLabel"></span></div></foreignObject></g></g><g class="edgeLabel"><g transform="translate(0, 0)" class="label"><foreignObject height="0" width="0"><div style="display: inline-block; white-space: nowrap;" xmlns="http://www.w3.org/1999/xhtml"><span class="edgeLabel"></span></div></foreignObject></g></g><g class="edgeLabel"><g transform="translate(0, 0)" class="label"><foreignObject height="0" width="0"><div style="display: inline-block; white-space: nowrap;" xmlns="http://www.w3.org/1999/xhtml"><span class="edgeLabel"></span></div></foreignObject></g></g><g class="edgeLabel"><g transform="translate(0, 0)" class="label"><foreignObject height="0" width="0"><div style="display: inline-block; white-space: nowrap;" xmlns="http://www.w3.org/1999/xhtml"><span class="edgeLabel"></span></div></foreignObject></g></g><g class="edgeLabel"><g transform="translate(0, 0)" class="label"><foreignObject height="0" width="0"><div style="display: inline-block; white-space: nowrap;" xmlns="http://www.w3.org/1999/xhtml"><span class="edgeLabel"></span></div></foreignObject></g></g><g class="edgeLabel"><g transform="translate(0, 0)" class="label"><foreignObject height="0" width="0"><div style="display: inline-block; white-space: nowrap;" xmlns="http://www.w3.org/1999/xhtml"><span class="edgeLabel"></span></div></foreignObject></g></g><g class="edgeLabel"><g transform="translate(0, 0)" class="label"><foreignObject height="0" width="0"><div style="display: inline-block; white-space: nowrap;" xmlns="http://www.w3.org/1999/xhtml"><span class="edgeLabel"></span></div></foreignObject></g></g><g class="edgeLabel"><g transform="translate(0, 0)" class="label"><foreignObject height="0" width="0"><div style="display: inline-block; white-space: nowrap;" xmlns="http://www.w3.org/1999/xhtml"><span class="edgeLabel"></span></div></foreignObject></g></g><g class="edgeLabel"><g transform="translate(0, 0)" class="label"><foreignObject height="0" width="0"><div style="display: inline-block; white-space: nowrap;" xmlns="http://www.w3.org/1999/xhtml"><span class="edgeLabel"></span></div></foreignObject></g></g><g class="edgeLabel"><g transform="translate(0, 0)" class="label"><foreignObject height="0" width="0"><div style="display: inline-block; white-space: nowrap;" xmlns="http://www.w3.org/1999/xhtml"><span class="edgeLabel"></span></div></foreignObject></g></g><g class="edgeLabel"><g transform="translate(0, 0)" class="label"><foreignObject height="0" width="0"><div style="display: inline-block; white-space: nowrap;" xmlns="http://www.w3.org/1999/xhtml"><span class="edgeLabel"></span></div></foreignObject></g></g><g class="edgeLabel"><g transform="translate(0, 0)" class="label"><foreignObject height="0" width="0"><div style="display: inline-block; white-space: nowrap;" xmlns="http://www.w3.org/1999/xhtml"><span class="edgeLabel"></span></div></foreignObject></g></g><g class="edgeLabel"><g transform="translate(0, 0)" class="label"><foreignObject height="0" width="0"><div style="display: inline-block; white-space: nowrap;" xmlns="http://www.w3.org/1999/xhtml"><span class="edgeLabel"></span></div></foreignObject></g></g><g class="edgeLabel"><g transform="translate(0, 0)" class="label"><foreignObject height="0" width="0"><div style="display: inline-block; white-space: nowrap;" xmlns="http://www.w3.org/1999/xhtml"><span class="edgeLabel"></span></div></foreignObject></g></g><g class="edgeLabel"><g transform="translate(0, 0)" class="label"><foreignObject height="0" width="0"><div style="display: inline-block; white-space: nowrap;" xmlns="http://www.w3.org/1999/xhtml"><span class="edgeLabel"></span></div></foreignObject></g></g></g><g class="nodes"><g transform="translate(869.80859375, 1085.5)" data-id="DDA" data-node="true" id="flowchart-DDA-16" class="node default clinical flowchart-label"><rect height="39" width="215.125" y="-19.5" x="-107.5625" ry="0" rx="0" style="" class="basic label-container"/><g transform="translate(-98.5625, -10.5)" style="" class="label"><rect/><foreignObject height="21" width="197.125"><div style="display: inline-block; white-space: nowrap;" xmlns="http://www.w3.org/1999/xhtml"><span class="nodeLabel">Doctor Dashboard Agent</span></div></foreignObject></g></g><g transform="translate(869.80859375, 1179.5)" data-id="TRA" data-node="true" id="flowchart-TRA-17" class="node default clinical flowchart-label"><rect height="39" width="296.484375" y="-19.5" x="-148.2421875" ry="0" rx="0" style="" class="basic label-container"/><g transform="translate(-139.2421875, -10.5)" style="" class="label"><rect/><foreignObject height="21" width="278.484375"><div style="display: inline-block; white-space: nowrap;" xmlns="http://www.w3.org/1999/xhtml"><span class="nodeLabel">Treatment Recommendation Agent</span></div></foreignObject></g></g><g transform="translate(355.046875, 599.5)" data-id="MRI" data-node="true" id="flowchart-MRI-10" class="node default radiology flowchart-label"><rect height="39" width="102.046875" y="-19.5" x="-51.0234375" ry="0" rx="0" style="" class="basic label-container"/><g transform="translate(-42.0234375, -10.5)" style="" class="label"><rect/><foreignObject height="21" width="84.046875"><div style="display: inline-block; white-space: nowrap;" xmlns="http://www.w3.org/1999/xhtml"><span class="nodeLabel">MRI Agent</span></div></foreignObject></g></g><g transform="translate(518.609375, 721)" data-id="MAS" data-node="true" id="flowchart-MAS-11" class="node default radiology flowchart-label"><rect height="39" width="232.125" y="-19.5" x="-116.0625" ry="0" rx="0" style="" class="basic label-container"/><g transform="translate(-107.0625, -10.5)" style="" class="label"><rect/><foreignObject height="21" width="214.125"><div style="display: inline-block; white-space: nowrap;" xmlns="http://www.w3.org/1999/xhtml"><span class="nodeLabel">MRI Acquisition Sub-Agent</span></div></foreignObject></g></g><g transform="translate(255.5, 721)" data-id="MCA" data-node="true" id="flowchart-MCA-12" class="node default radiology flowchart-label"><rect height="39" width="204.09375" y="-19.5" x="-102.046875" ry="0" rx="0" style="" class="basic label-container"/><g transform="translate(-93.046875, -10.5)" style="" class="label"><rect/><foreignObject height="21" width="186.09375"><div style="display: inline-block; white-space: nowrap;" xmlns="http://www.w3.org/1999/xhtml"><span class="nodeLabel">MRI Comparison Agent</span></div></foreignObject></g></g><g transform="translate(159.5546875, 842.5)" data-id="ICS" data-node="true" id="flowchart-ICS-13" class="node default radiology flowchart-label"><rect height="39" width="254.109375" y="-19.5" x="-127.0546875" ry="0" rx="0" style="" class="basic label-container"/><g transform="translate(-118.0546875, -10.5)" style="" class="label"><rect/><foreignObject height="21" width="236.109375"><div style="display: inline-block; white-space: nowrap;" xmlns="http://www.w3.org/1999/xhtml"><span class="nodeLabel">Imaging Summary Sub-Agent</span></div></foreignObject></g></g><g transform="translate(159.5546875, 936.5)" data-id="IC" data-node="true" id="flowchart-IC-14" class="node default radiology flowchart-label"><rect height="39" width="181.09375" y="-19.5" x="-90.546875" ry="0" rx="0" style="" class="basic label-container"/><g transform="translate(-81.546875, -10.5)" style="" class="label"><rect/><foreignObject height="21" width="163.09375"><div style="display: inline-block; white-space: nowrap;" xmlns="http://www.w3.org/1999/xhtml"><span class="nodeLabel">Imaging Coordinator</span></div></foreignObject></g></g><g transform="translate(435.16796875, 842.5)" data-id="MCP" data-node="true" id="flowchart-MCP-15" class="node default radiology flowchart-label"><rect height="39" width="58" y="-19.5" x="-29" ry="0" rx="0" style="" class="basic label-container"/><g transform="translate(-20, -10.5)" style="" class="label"><rect/><foreignObject height="21" width="40"><div style="display: inline-block; white-space: nowrap;" xmlns="http://www.w3.org/1999/xhtml"><span class="nodeLabel">MCP</span></div></foreignObject></g></g><g transform="translate(982.28515625, 842.5)" data-id="LC" data-node="true" id="flowchart-LC-7" class="node default lab flowchart-label"><rect height="39" width="147.09375" y="-19.5" x="-73.546875" ry="0" rx="0" style="" class="basic label-container"/><g transform="translate(-64.546875, -10.5)" style="" class="label"><rect/><foreignObject height="21" width="129.09375"><div style="display: inline-block; white-space: nowrap;" xmlns="http://www.w3.org/1999/xhtml"><span class="nodeLabel">Lab Coordinator</span></div></foreignObject></g></g><g transform="translate(1116.25390625, 936.5)" data-id="BTA" data-node="true" id="flowchart-BTA-8" class="node default lab flowchart-label"><rect height="39" width="191.796875" y="-19.5" x="-95.8984375" ry="0" rx="0" style="" class="basic label-container"/><g transform="translate(-86.8984375, -10.5)" style="" class="label"><rect/><foreignObject height="21" width="173.796875"><div style="display: inline-block; white-space: nowrap;" xmlns="http://www.w3.org/1999/xhtml"><span class="nodeLabel">Blood Test Sub-Agent</span></div></foreignObject></g></g><g transform="translate(869.80859375, 936.5)" data-id="BCA" data-node="true" id="flowchart-BCA-9" class="node default lab flowchart-label"><rect height="39" width="211.09375" y="-19.5" x="-105.546875" ry="0" rx="0" style="" class="basic label-container"/><g transform="translate(-96.546875, -10.5)" style="" class="label"><rect/><foreignObject height="21" width="193.09375"><div style="display: inline-block; white-space: nowrap;" xmlns="http://www.w3.org/1999/xhtml"><span class="nodeLabel">Biochemistry Sub-Agent</span></div></foreignObject></g></g><g transform="translate(982.28515625, 478)" data-id="PCC" data-node="true" id="flowchart-PCC-5" class="node default coord flowchart-label"><rect height="39" width="251.125" y="-19.5" x="-125.5625" ry="0" rx="0" style="" class="basic label-container"/><g transform="translate(-116.5625, -10.5)" style="" class="label"><rect/><foreignObject height="21" width="233.125"><div style="display: inline-block; white-space: nowrap;" xmlns="http://www.w3.org/1999/xhtml"><span class="nodeLabel">Pre-Consultation Coordinator</span></div></foreignObject></g></g><g transform="translate(1267.2421875, 599.5)" data-id="AAS" data-node="true" id="flowchart-AAS-6" class="node default coord flowchart-label"><rect height="39" width="242.15625" y="-19.5" x="-121.078125" ry="0" rx="0" style="" class="basic label-container"/><g transform="translate(-112.078125, -10.5)" style="" class="label"><rect/><foreignObject height="21" width="224.15625"><div style="display: inline-block; white-space: nowrap;" xmlns="http://www.w3.org/1999/xhtml"><span class="nodeLabel">Appointment API Sub-Agent</span></div></foreignObject></g></g><g transform="translate(893.25390625, 141)" data-id="RA" data-node="true" id="flowchart-RA-1" class="node default intake flowchart-label"><rect height="39" width="165.09375" y="-19.5" x="-82.546875" ry="0" rx="0" style="" class="basic label-container"/><g transform="translate(-73.546875, -10.5)" style="" class="label"><rect/><foreignObject height="21" width="147.09375"><div style="display: inline-block; white-space: nowrap;" xmlns="http://www.w3.org/1999/xhtml"><span class="nodeLabel">Registration Agent</span></div></foreignObject></g></g><g transform="translate(1169.359375, 329)" data-id="SCS" data-node="true" id="flowchart-SCS-2" class="node default intake flowchart-label"><rect height="39" width="239.140625" y="-19.5" x="-119.5703125" ry="0" rx="0" style="" class="basic label-container"/><g transform="translate(-110.5703125, -10.5)" style="" class="label"><rect/><foreignObject height="21" width="221.140625"><div style="display: inline-block; white-space: nowrap;" xmlns="http://www.w3.org/1999/xhtml"><span class="nodeLabel">Session Context Sub-Agent</span></div></foreignObject></g></g><g transform="translate(741.19140625, 235)" data-id="HFA" data-node="true" id="flowchart-HFA-3" class="node default intake flowchart-label"><rect height="39" width="175.078125" y="-19.5" x="-87.5390625" ry="0" rx="0" style="" class="basic label-container"/><g transform="translate(-78.5390625, -10.5)" style="" class="label"><rect/><foreignObject height="21" width="157.078125"><div style="display: inline-block; white-space: nowrap;" xmlns="http://www.w3.org/1999/xhtml"><span class="nodeLabel">History Fetch Agent</span></div></foreignObject></g></g><g transform="translate(865.234375, 329)" data-id="HNS" data-node="true" id="flowchart-HNS-4" class="node default intake flowchart-label"><rect height="39" width="279.109375" y="-19.5" x="-139.5546875" ry="0" rx="0" style="" class="basic label-container"/><g transform="translate(-130.5546875, -10.5)" style="" class="label"><rect/><foreignObject height="21" width="261.109375"><div style="display: inline-block; white-space: nowrap;" xmlns="http://www.w3.org/1999/xhtml"><span class="nodeLabel">History Normalization Sub-Agent</span></div></foreignObject></g></g><g transform="translate(893.25390625, 19.5)" data-id="P" data-node="true" id="flowchart-P-0" class="node default patient flowchart-label"><rect height="39" width="143.078125" y="-19.5" x="-71.5390625" ry="0" rx="0" style="" class="basic label-container"/><g transform="translate(-62.5390625, -10.5)" style="" class="label"><rect/><foreignObject height="21" width="125.078125"><div style="display: inline-block; white-space: nowrap;" xmlns="http://www.w3.org/1999/xhtml"><span class="nodeLabel">Patient Session</span></div></foreignObject></g></g></g></g></g></svg>