<svg aria-roledescription="flowchart-v2" role="graphics-document document" viewBox="-8 -8 3344.390625 560.5" style="max-width: 3344.39px; background-color: white;" xmlns:xlink="http://www.w3.org/1999/xlink" xmlns="http://www.w3.org/2000/svg" width="100%" id="my-svg"><style>#my-svg{font-family:Trebuchet MS,Segoe UI,Arial,sans-serif;font-size:18px;fill:#10233d;}#my-svg .error-icon{fill:#ffffff;}#my-svg .error-text{fill:#000000;stroke:#000000;}#my-svg .edge-thickness-normal{stroke-width:2px;}#my-svg .edge-thickness-thick{stroke-width:3.5px;}#my-svg .edge-pattern-solid{stroke-dasharray:0;}#my-svg .edge-pattern-dashed{stroke-dasharray:3;}#my-svg .edge-pattern-dotted{stroke-dasharray:2;}#my-svg .marker{fill:#4b5563;stroke:#4b5563;}#my-svg .marker.cross{stroke:#4b5563;}#my-svg svg{font-family:Trebuchet MS,Segoe UI,Arial,sans-serif;font-size:18px;}#my-svg .label{font-family:Trebuchet MS,Segoe UI,Arial,sans-serif;color:#10233d;}#my-svg .cluster-label text{fill:#000000;}#my-svg .cluster-label span,#my-svg p{color:#000000;}#my-svg .label text,#my-svg span,#my-svg p{fill:#10233d;color:#10233d;}#my-svg .node rect,#my-svg .node circle,#my-svg .node ellipse,#my-svg .node polygon,#my-svg .node path{fill:#ffffff;stroke:#315ea8;stroke-width:1px;}#my-svg .flowchart-label text{text-anchor:middle;}#my-svg .node .katex path{fill:#000;stroke:#000;stroke-width:1px;}#my-svg .node .label{text-align:center;}#my-svg .node.clickable{cursor:pointer;}#my-svg .arrowheadPath{fill:#000000;}#my-svg .edgePath .path{stroke:#4b5563;stroke-width:2.0px;}#my-svg .flowchart-link{stroke:#4b5563;fill:none;}#my-svg .edgeLabel{background-color:#f3f4f6;text-align:center;}#my-svg .edgeLabel rect{opacity:0.5;background-color:#f3f4f6;fill:#f3f4f6;}#my-svg .labelBkg{background-color:rgba(243, 244, 246, 0.5);}#my-svg .cluster rect{fill:#f8fafc;stroke:#cbd5e1;stroke-width:1px;}#my-svg .cluster text{fill:#000000;}#my-svg .cluster span,#my-svg p{color:#000000;}#my-svg div.mermaidTooltip{position:absolute;text-align:center;max-width:200px;padding:2px;font-family:Trebuchet MS,Segoe UI,Arial,sans-serif;font-size:12px;background:#ffffff;border:1px solid hsl(0, 0%, 90%);border-radius:2px;pointer-events:none;z-index:100;}#my-svg .flowchartTitleText{text-anchor:middle;font-size:18px;fill:#10233d;}#my-svg :root{--mermaid-font-family:"trebuchet ms",verdana,arial,sans-serif;}#my-svg .intake&gt;*{fill:#d9f2e6!important;stroke:#1f6f4a!important;stroke-width:1.5px!important;color:#0d2f21!important;}#my-svg .intake span{fill:#d9f2e6!important;stroke:#1f6f4a!important;stroke-width:1.5px!important;color:#0d2f21!important;}#my-svg .intake tspan{fill:#0d2f21!important;}#my-svg .diag&gt;*{fill:#fff1d6!important;stroke:#b7791f!important;stroke-width:1.5px!important;color:#4a2b00!important;}#my-svg .diag span{fill:#fff1d6!important;stroke:#b7791f!important;stroke-width:1.5px!important;color:#4a2b00!important;}#my-svg .diag tspan{fill:#4a2b00!important;}#my-svg .clinical&gt;*{fill:#ece7ff!important;stroke:#5b43b5!important;stroke-width:1.5px!important;color:#24154a!important;}#my-svg .clinical span{fill:#ece7ff!important;stroke:#5b43b5!important;stroke-width:1.5px!important;color:#24154a!important;}#my-svg .clinical tspan{fill:#24154a!important;}#my-svg .service&gt;*{fill:#e7eefb!important;stroke:#2b5fb3!important;stroke-width:1.5px!important;color:#12294d!important;}#my-svg .service span{fill:#e7eefb!important;stroke:#2b5fb3!important;stroke-width:1.5px!important;color:#12294d!important;}#my-svg .service tspan{fill:#12294d!important;}</style><g><marker orient="auto" markerHeight="12" markerWidth="12" markerUnits="userSpaceOnUse" refY="5" refX="6" viewBox="0 0 10 10" class="marker flowchart" id="my-svg_flowchart-pointEnd"><path style="stroke-width: 1; stroke-dasharray: 1, 0;" class="arrowMarkerPath" d="M 0 0 L 10 5 L 0 10 z"/></marker><marker orient="auto" markerHeight="12" markerWidth="12" markerUnits="userSpaceOnUse" refY="5" refX="4.5" viewBox="0 0 10 10" class="marker flowchart" id="my-svg_flowchart-pointStart"><path style="stroke-width: 1; stroke-dasharray: 1, 0;" class="arrowMarkerPath" d="M 0 5 L 10 10 L 10 0 z"/></marker><marker orient="auto" markerHeight="11" markerWidth="11" markerUnits="userSpaceOnUse" refY="5" refX="11" viewBox="0 0 10 10" class="marker flowchart" id="my-svg_flowchart-circleEnd"><circle style="stroke-width: 1; stroke-dasharray: 1, 0;" class="arrowMarkerPath" r="5" cy="5" cx="5"/></marker><marker orient="auto" markerHeight="11" markerWidth="11" markerUnits="userSpaceOnUse" refY="5" refX="-1" viewBox="0 0 10 10" class="marker flowchart" id="my-svg_flowchart-circleStart"><circle style="stroke-width: 1; stroke-dasharray: 1, 0;" class="arrowMarkerPath" r="5" cy="5" cx="5"/></marker><marker orient="auto" markerHeight="11" markerWidth="11" markerUnits="userSpaceOnUse" refY="5.2" refX="12" viewBox="0 0 11 11" class="marker cross flowchart" id="my-svg_flowchart-crossEnd"><path style="stroke-width: 2; stroke-dasharray: 1, 0;" class="arrowMarkerPath" d="M 1,1 l 9,9 M 10,1 l -9,9"/></marker><marker orient="auto" markerHeight="11" markerWidth="11" markerUnits="userSpaceOnUse" refY="5.2" refX="-1" viewBox="0 0 11 11" class="marker cross flowchart" id="my-svg_flowchart-crossStart"><path style="stroke-width: 2; stroke-dasharray: 1, 0;" class="arrowMarkerPath" d="M 1,1 l 9,9 M 10,1 l -9,9"/></marker><g class="root"><g class="clusters"><g id="Services" class="cluster default flowchart-label"><rect height="188" width="253.125" y="0" x="2102.984375" ry="0" rx="0" style=""/><g transform="translate(2102.984375, 0)" class="cluster-label"><foreignObject height="21" width="253.125"><div style="display: inline-block; white-space: nowrap;" xmlns="http://www.w3.org/1999/xhtml"><span class="nodeLabel">External and Compute Services</span></div></foreignObject></g></g><g id="Clinical" class="cluster default flowchart-label"><rect height="506.5" width="735.671875" y="6" x="2592.71875" ry="0" rx="0" style=""/><g transform="translate(2869.515625, 6)" class="cluster-label"><foreignObject height="21" width="182.078125"><div style="display: inline-block; white-space: nowrap;" xmlns="http://www.w3.org/1999/xhtml"><span class="nodeLabel">Clinical Decision Layer</span></div></foreignObject></g></g><g id="Diagnostics" class="cluster default flowchart-label"><rect height="254" width="1080" y="208" x="1267.59375" ry="0" rx="0" style=""/><g transform="translate(1735.546875, 208)" class="cluster-label"><foreignObject height="21" width="144.09375"><div style="display: inline-block; white-space: nowrap;" xmlns="http://www.w3.org/1999/xhtml"><span class="nodeLabel">Diagnostic Agents</span></div></foreignObject></g></g><g id="Intake" class="cluster default flowchart-label"><rect height="538.5" width="1064.5" y="6" x="0" ry="0" rx="0" style=""/><g transform="translate(477.703125, 6)" class="cluster-label"><foreignObject height="21" width="109.09375"><div style="display: inline-block; white-space: nowrap;" xmlns="http://www.w3.org/1999/xhtml"><span class="nodeLabel">Intake Agents</span></div></foreignObject></g></g></g><g class="edgePaths"><path marker-end="url(#my-svg_flowchart-pointEnd)" style="fill:none;stroke-width:2px;stroke-dasharray:3;" class="edge-thickness-normal edge-pattern-dotted flowchart-link LS-RA LE-HFA" id="L-RA-HFA-0" d="M192.594,474.891L210.353,477.826C228.112,480.761,263.63,486.63,298.265,489.565C332.9,492.5,366.652,492.5,383.527,492.5L400.403,492.5"/><path marker-end="url(#my-svg_flowchart-pointEnd)" style="fill:none;stroke-width:2px;stroke-dasharray:3;" class="edge-thickness-normal edge-pattern-dotted flowchart-link LS-RA LE-PCC" id="L-RA-PCC-0" d="M192.594,443.243L210.353,439.37C228.112,435.496,263.63,427.748,313.738,423.874C363.846,420,428.544,420,492.574,420C556.604,420,619.966,420,682.652,403.825C745.338,387.65,807.349,355.301,838.354,339.126L869.359,322.951"/><path marker-end="url(#my-svg_flowchart-pointEnd)" style="fill:none;stroke-width:2px;stroke-dasharray:3;" class="edge-thickness-normal edge-pattern-dotted flowchart-link LS-HFA LE-PCC" id="L-HFA-PCC-0" d="M501.567,473L531.861,402.042C562.154,331.083,622.741,189.167,687.541,156.593C752.34,124.019,821.352,200.789,855.859,239.174L890.365,277.558"/><path marker-end="url(#my-svg_flowchart-pointEnd)" style="fill:none;stroke-width:2px;stroke-dasharray:3;" class="edge-thickness-normal edge-pattern-dotted flowchart-link LS-PCC LE-AA" id="L-PCC-AA-0" d="M923.424,281.5L946.937,243.25C970.45,205,1017.475,128.5,1057.912,90.25C1098.349,52,1132.198,52,1166.047,52C1199.896,52,1233.745,52,1264.342,52C1294.94,52,1322.286,52,1365.977,52C1409.667,52,1469.701,52,1537.652,52C1605.604,52,1681.474,52,1757.426,52C1833.378,52,1909.411,52,1968.438,52C2027.464,52,2069.482,52,2096.608,52C2123.733,52,2135.967,52,2142.083,52L2148.2,52"/><path marker-end="url(#my-svg_flowchart-pointEnd)" style="fill:none;stroke-width:2px;stroke-dasharray:3;" class="edge-thickness-normal edge-pattern-dotted flowchart-link LS-PCC LE-LA" id="L-PCC-LA-0" d="M938.82,320.5L959.767,335.417C980.713,350.333,1022.607,380.167,1060.478,395.083C1098.349,410,1132.198,410,1166.047,410C1199.896,410,1233.745,410,1264.342,410C1294.94,410,1322.286,410,1365.977,410C1409.667,410,1469.701,410,1527.761,410C1585.822,410,1641.909,410,1669.953,410L1697.997,410"/><path marker-end="url(#my-svg_flowchart-pointEnd)" style="fill:none;stroke-width:2px;stroke-dasharray:3;" class="edge-thickness-normal edge-pattern-dotted flowchart-link LS-PCC LE-MA" id="L-PCC-MA-0" d="M1037,301L1041.583,301C1046.167,301,1055.333,301,1076.841,301C1098.349,301,1132.198,301,1166.047,301C1199.896,301,1233.745,301,1254.955,301C1276.166,301,1284.738,301,1289.023,301L1293.309,301"/><path marker-end="url(#my-svg_flowchart-pointEnd)" style="fill:none;stroke-width:2px;stroke-dasharray:3;" class="edge-thickness-normal edge-pattern-dotted flowchart-link LS-LA LE-LC" id="L-LA-LC-0" d="M1811.391,410L1840.4,410C1869.409,410,1927.427,410,1977.445,410C2027.464,410,2069.482,410,2097.024,410C2124.567,410,2137.633,410,2144.167,410L2150.7,410"/><path marker-end="url(#my-svg_flowchart-pointEnd)" style="fill:none;stroke-width:2px;stroke-dasharray:3;" class="edge-thickness-normal edge-pattern-dotted flowchart-link LS-MA LE-IC" id="L-MA-IC-0" d="M1400.656,311.128L1422.169,315.398C1443.682,319.669,1486.708,328.209,1546.156,332.48C1605.604,336.75,1681.474,336.75,1757.426,336.75C1833.378,336.75,1909.411,336.75,1968.438,336.75C2027.464,336.75,2069.482,336.75,2094.198,336.271C2118.915,335.792,2126.329,334.834,2130.036,334.355L2133.744,333.876"/><path marker-end="url(#my-svg_flowchart-pointEnd)" style="fill:none;stroke-width:2px;stroke-dasharray:3;" class="edge-thickness-normal edge-pattern-dotted flowchart-link LS-MA LE-MCA" id="L-MA-MCA-0" d="M1400.656,292.147L1422.169,288.414C1443.682,284.681,1486.708,277.216,1528.265,273.483C1569.822,269.75,1609.909,269.75,1629.953,269.75L1649.997,269.75"/><path marker-end="url(#my-svg_flowchart-pointEnd)" style="fill:none;stroke-width:2px;stroke-dasharray:3;" class="edge-thickness-normal edge-pattern-dotted flowchart-link LS-MCA LE-MCP" id="L-MCA-MCP-0" d="M1859.391,260.579L1880.4,258.691C1901.409,256.803,1943.427,253.026,1985.445,251.138C2027.464,249.25,2069.482,249.25,2106.14,234.237C2142.799,219.223,2174.098,189.196,2189.747,174.183L2205.396,159.169"/><path marker-end="url(#my-svg_flowchart-pointEnd)" style="fill:none;stroke-width:2px;stroke-dasharray:3;" class="edge-thickness-normal edge-pattern-dotted flowchart-link LS-MCA LE-IC" id="L-MCA-IC-0" d="M1859.391,278.921L1880.4,280.809C1901.409,282.697,1943.427,286.474,1985.445,288.362C2027.464,290.25,2069.482,290.25,2097.035,291.982C2124.587,293.715,2137.675,297.179,2144.218,298.911L2150.762,300.644"/><path marker-end="url(#my-svg_flowchart-pointEnd)" style="fill:none;stroke-width:2px;stroke-dasharray:3;" class="edge-thickness-normal edge-pattern-dotted flowchart-link LS-HFA LE-DD" id="L-HFA-DD-0" d="M580.781,492.5L597.872,492.5C614.964,492.5,649.146,492.5,704.255,492.5C759.365,492.5,835.401,492.5,898.93,492.5C962.458,492.5,1013.479,492.5,1055.914,492.5C1098.349,492.5,1132.198,492.5,1166.047,492.5C1199.896,492.5,1233.745,492.5,1264.342,492.5C1294.94,492.5,1322.286,492.5,1365.977,492.5C1409.667,492.5,1469.701,492.5,1537.652,492.5C1605.604,492.5,1681.474,492.5,1757.426,492.5C1833.378,492.5,1909.411,492.5,1968.438,492.5C2027.464,492.5,2069.482,492.5,2110.165,492.5C2150.849,492.5,2190.198,492.5,2229.547,492.5C2268.896,492.5,2308.245,492.5,2348.346,492.5C2388.448,492.5,2429.302,492.5,2470.156,492.5C2511.01,492.5,2551.865,492.5,2587.217,474.923C2622.569,457.347,2652.419,422.193,2667.344,404.617L2682.269,387.04"/><path marker-end="url(#my-svg_flowchart-pointEnd)" style="fill:none;stroke-width:2px;stroke-dasharray:3;" class="edge-thickness-normal edge-pattern-dotted flowchart-link LS-LC LE-DD" id="L-LC-DD-0" d="M2303.094,410L2310.51,410C2317.927,410,2332.76,410,2360.604,410C2388.448,410,2429.302,410,2470.156,410C2511.01,410,2551.865,410,2582.079,405.845C2612.294,401.69,2631.869,393.381,2641.656,389.226L2651.443,385.071"/><path marker-end="url(#my-svg_flowchart-pointEnd)" style="fill:none;stroke-width:2px;stroke-dasharray:3;" class="edge-thickness-normal edge-pattern-dotted flowchart-link LS-IC LE-DD" id="L-IC-DD-0" d="M2320.094,321.5L2324.677,321.5C2329.26,321.5,2338.427,321.5,2363.438,321.5C2388.448,321.5,2429.302,321.5,2470.156,321.5C2511.01,321.5,2551.865,321.5,2581.247,324.934C2610.63,328.368,2628.541,335.235,2637.496,338.669L2646.452,342.103"/><path marker-end="url(#my-svg_flowchart-pointEnd)" style="fill:none;stroke-width:2px;stroke-dasharray:3;" class="edge-thickness-normal edge-pattern-dotted flowchart-link LS-AA LE-DD" id="L-AA-DD-0" d="M2305.594,52L2312.594,52C2319.594,52,2333.594,52,2361.021,52C2388.448,52,2429.302,52,2470.156,52C2511.01,52,2551.865,52,2589.112,99.833C2626.36,147.667,2660.001,243.333,2676.822,291.167L2693.642,339"/><path marker-end="url(#my-svg_flowchart-pointEnd)" style="fill:none;stroke-width:2px;stroke-dasharray:3;" class="edge-thickness-normal edge-pattern-dotted flowchart-link LS-DD LE-TRA" id="L-DD-TRA-0" d="M2784.297,363.5L2802.639,363.5C2820.982,363.5,2857.667,363.5,2893.468,363.5C2929.27,363.5,2964.188,363.5,2981.647,363.5L2999.106,363.5"/></g><g class="edgeLabels"><g transform="translate(299.1484375, 492.5)" class="edgeLabel"><g transform="translate(-79.0546875, -10.5)" class="label"><foreignObject height="21" width="158.109375"><div style="display: inline-block; white-space: nowrap;" xmlns="http://www.w3.org/1999/xhtml"><span class="edgeLabel">A2A patient session</span></div></foreignObject></g></g><g transform="translate(493.2421875, 420)" class="edgeLabel"><g transform="translate(-74.5546875, -10.5)" class="label"><foreignObject height="21" width="149.109375"><div style="display: inline-block; white-space: nowrap;" xmlns="http://www.w3.org/1999/xhtml"><span class="edgeLabel">A2A intake context</span></div></foreignObject></g></g><g transform="translate(683.328125, 47.25)" class="edgeLabel"><g transform="translate(-75.046875, -10.5)" class="label"><foreignObject height="21" width="150.09375"><div style="display: inline-block; white-space: nowrap;" xmlns="http://www.w3.org/1999/xhtml"><span class="edgeLabel">A2A patient history</span></div></foreignObject></g></g><g transform="translate(1529.734375, 52)" class="edgeLabel"><g transform="translate(-94.5703125, -10.5)" class="label"><foreignObject height="21" width="189.140625"><div style="display: inline-block; white-space: nowrap;" xmlns="http://www.w3.org/1999/xhtml"><span class="edgeLabel">A2A scheduling request</span></div></foreignObject></g></g><g transform="translate(1349.6328125, 410)" class="edgeLabel"><g transform="translate(-54.5390625, -10.5)" class="label"><foreignObject height="21" width="109.078125"><div style="display: inline-block; white-space: nowrap;" xmlns="http://www.w3.org/1999/xhtml"><span class="edgeLabel">A2A lab order</span></div></foreignObject></g></g><g transform="translate(1166.046875, 301)" class="edgeLabel"><g transform="translate(-74.046875, -10.5)" class="label"><foreignObject height="21" width="148.09375"><div style="display: inline-block; white-space: nowrap;" xmlns="http://www.w3.org/1999/xhtml"><span class="edgeLabel">A2A imaging order</span></div></foreignObject></g></g><g transform="translate(1985.4453125, 410)" class="edgeLabel"><g transform="translate(-93.5703125, -10.5)" class="label"><foreignObject height="21" width="187.140625"><div style="display: inline-block; white-space: nowrap;" xmlns="http://www.w3.org/1999/xhtml"><span class="edgeLabel">A2A diagnostic payload</span></div></foreignObject></g></g><g transform="translate(1757.34375, 336.75)" class="edgeLabel"><g transform="translate(-78.0546875, -10.5)" class="label"><foreignObject height="21" width="156.109375"><div style="display: inline-block; white-space: nowrap;" xmlns="http://www.w3.org/1999/xhtml"><span class="edgeLabel">A2A scan metadata</span></div></foreignObject></g></g><g transform="translate(1529.734375, 269.75)" class="edgeLabel"><g transform="translate(-98.0625, -10.5)" class="label"><foreignObject height="21" width="196.125"><div style="display: inline-block; white-space: nowrap;" xmlns="http://www.w3.org/1999/xhtml"><span class="edgeLabel">A2A comparison request</span></div></foreignObject></g></g><g transform="translate(1985.4453125, 249.25)" class="edgeLabel"><g transform="translate(-62.8671875, -10.5)" class="label"><foreignObject height="21" width="125.734375"><div style="display: inline-block; white-space: nowrap;" xmlns="http://www.w3.org/1999/xhtml"><span class="edgeLabel">MCP invocation</span></div></foreignObject></g></g><g transform="translate(1985.4453125, 290.25)" class="edgeLabel"><g transform="translate(-98.5546875, -10.5)" class="label"><foreignObject height="21" width="197.109375"><div style="display: inline-block; white-space: nowrap;" xmlns="http://www.w3.org/1999/xhtml"><span class="edgeLabel">A2A comparison insights</span></div></foreignObject></g></g><g transform="translate(1529.734375, 492.5)" class="edgeLabel"><g transform="translate(-85.03125, -10.5)" class="label"><foreignObject height="21" width="170.0625"><div style="display: inline-block; white-space: nowrap;" xmlns="http://www.w3.org/1999/xhtml"><span class="edgeLabel">A2A history summary</span></div></foreignObject></g></g><g transform="translate(2470.15625, 410)" class="edgeLabel"><g transform="translate(-70.53125, -10.5)" class="label"><foreignObject height="21" width="141.0625"><div style="display: inline-block; white-space: nowrap;" xmlns="http://www.w3.org/1999/xhtml"><span class="edgeLabel">A2A lab summary</span></div></foreignObject></g></g><g transform="translate(2470.15625, 321.5)" class="edgeLabel"><g transform="translate(-90.0390625, -10.5)" class="label"><foreignObject height="21" width="180.078125"><div style="display: inline-block; white-space: nowrap;" xmlns="http://www.w3.org/1999/xhtml"><span class="edgeLabel">A2A imaging summary</span></div></foreignObject></g></g><g transform="translate(2470.15625, 52)" class="edgeLabel"><g transform="translate(-95.0625, -10.5)" class="label"><foreignObject height="21" width="190.125"><div style="display: inline-block; white-space: nowrap;" xmlns="http://www.w3.org/1999/xhtml"><span class="edgeLabel">A2A appointment status</span></div></foreignObject></g></g><g transform="translate(2894.3515625, 363.5)" class="edgeLabel"><g transform="translate(-82.5546875, -10.5)" class="label"><foreignObject height="21" width="165.109375"><div style="display: inline-block; white-space: nowrap;" xmlns="http://www.w3.org/1999/xhtml"><span class="edgeLabel">A2A clinical package</span></div></foreignObject></g></g></g><g class="nodes"><g transform="translate(2229.546875, 52)" data-id="AA" data-node="true" id="flowchart-AA-10" class="node default service flowchart-label"><rect height="39" width="152.09375" y="-19.5" x="-76.046875" ry="0" rx="0" style="" class="basic label-container"/><g transform="translate(-67.046875, -10.5)" style="" class="label"><rect/><foreignObject height="21" width="134.09375"><div style="display: inline-block; white-space: nowrap;" xmlns="http://www.w3.org/1999/xhtml"><span class="nodeLabel">Appointment API</span></div></foreignObject></g></g><g transform="translate(2229.546875, 136)" data-id="MCP" data-node="true" id="flowchart-MCP-11" class="node default service flowchart-label"><rect height="39" width="58" y="-19.5" x="-29" ry="0" rx="0" style="" class="basic label-container"/><g transform="translate(-20, -10.5)" style="" class="label"><rect/><foreignObject height="21" width="40"><div style="display: inline-block; white-space: nowrap;" xmlns="http://www.w3.org/1999/xhtml"><span class="nodeLabel">MCP</span></div></foreignObject></g></g><g transform="translate(2702.2578125, 363.5)" data-id="DD" data-node="true" id="flowchart-DD-8" class="node default clinical flowchart-label"><rect height="39" width="164.078125" y="-19.5" x="-82.0390625" ry="0" rx="0" style="" class="basic label-container"/><g transform="translate(-73.0390625, -10.5)" style="" class="label"><rect/><foreignObject height="21" width="146.078125"><div style="display: inline-block; white-space: nowrap;" xmlns="http://www.w3.org/1999/xhtml"><span class="nodeLabel">Doctor Dashboard</span></div></foreignObject></g></g><g transform="translate(3152.6484375, 363.5)" data-id="TRA" data-node="true" id="flowchart-TRA-9" class="node default clinical flowchart-label"><rect height="39" width="296.484375" y="-19.5" x="-148.2421875" ry="0" rx="0" style="" class="basic label-container"/><g transform="translate(-139.2421875, -10.5)" style="" class="label"><rect/><foreignObject height="21" width="278.484375"><div style="display: inline-block; white-space: nowrap;" xmlns="http://www.w3.org/1999/xhtml"><span class="nodeLabel">Treatment Recommendation Agent</span></div></foreignObject></g></g><g transform="translate(1757.34375, 410)" data-id="LA" data-node="true" id="flowchart-LA-3" class="node default diag flowchart-label"><rect height="39" width="108.09375" y="-19.5" x="-54.046875" ry="0" rx="0" style="" class="basic label-container"/><g transform="translate(-45.046875, -10.5)" style="" class="label"><rect/><foreignObject height="21" width="90.09375"><div style="display: inline-block; white-space: nowrap;" xmlns="http://www.w3.org/1999/xhtml"><span class="nodeLabel">Lab Agents</span></div></foreignObject></g></g><g transform="translate(2229.546875, 410)" data-id="LC" data-node="true" id="flowchart-LC-4" class="node default diag flowchart-label"><rect height="39" width="147.09375" y="-19.5" x="-73.546875" ry="0" rx="0" style="" class="basic label-container"/><g transform="translate(-64.546875, -10.5)" style="" class="label"><rect/><foreignObject height="21" width="129.09375"><div style="display: inline-block; white-space: nowrap;" xmlns="http://www.w3.org/1999/xhtml"><span class="nodeLabel">Lab Coordinator</span></div></foreignObject></g></g><g transform="translate(1349.6328125, 301)" data-id="MA" data-node="true" id="flowchart-MA-5" class="node default diag flowchart-label"><rect height="39" width="102.046875" y="-19.5" x="-51.0234375" ry="0" rx="0" style="" class="basic label-container"/><g transform="translate(-42.0234375, -10.5)" style="" class="label"><rect/><foreignObject height="21" width="84.046875"><div style="display: inline-block; white-space: nowrap;" xmlns="http://www.w3.org/1999/xhtml"><span class="nodeLabel">MRI Agent</span></div></foreignObject></g></g><g transform="translate(1757.34375, 269.75)" data-id="MCA" data-node="true" id="flowchart-MCA-6" class="node default diag flowchart-label"><rect height="39" width="204.09375" y="-19.5" x="-102.046875" ry="0" rx="0" style="" class="basic label-container"/><g transform="translate(-93.046875, -10.5)" style="" class="label"><rect/><foreignObject height="21" width="186.09375"><div style="display: inline-block; white-space: nowrap;" xmlns="http://www.w3.org/1999/xhtml"><span class="nodeLabel">MRI Comparison Agent</span></div></foreignObject></g></g><g transform="translate(2229.546875, 321.5)" data-id="IC" data-node="true" id="flowchart-IC-7" class="node default diag flowchart-label"><rect height="39" width="181.09375" y="-19.5" x="-90.546875" ry="0" rx="0" style="" class="basic label-container"/><g transform="translate(-81.546875, -10.5)" style="" class="label"><rect/><foreignObject height="21" width="163.09375"><div style="display: inline-block; white-space: nowrap;" xmlns="http://www.w3.org/1999/xhtml"><span class="nodeLabel">Imaging Coordinator</span></div></foreignObject></g></g><g transform="translate(110.046875, 461.25)" data-id="RA" data-node="true" id="flowchart-RA-0" class="node default intake flowchart-label"><rect height="39" width="165.09375" y="-19.5" x="-82.546875" ry="0" rx="0" style="" class="basic label-container"/><g transform="translate(-73.546875, -10.5)" style="" class="label"><rect/><foreignObject height="21" width="147.09375"><div style="display: inline-block; white-space: nowrap;" xmlns="http://www.w3.org/1999/xhtml"><span class="nodeLabel">Registration Agent</span></div></foreignObject></g></g><g transform="translate(493.2421875, 492.5)" data-id="HFA" data-node="true" id="flowchart-HFA-1" class="node default intake flowchart-label"><rect height="39" width="175.078125" y="-19.5" x="-87.5390625" ry="0" rx="0" style="" class="basic label-container"/><g transform="translate(-78.5390625, -10.5)" style="" class="label"><rect/><foreignObject height="21" width="157.078125"><div style="display: inline-block; white-space: nowrap;" xmlns="http://www.w3.org/1999/xhtml"><span class="nodeLabel">History Fetch Agent</span></div></foreignObject></g></g><g transform="translate(911.4375, 301)" data-id="PCC" data-node="true" id="flowchart-PCC-2" class="node default intake flowchart-label"><rect height="39" width="251.125" y="-19.5" x="-125.5625" ry="0" rx="0" style="" class="basic label-container"/><g transform="translate(-116.5625, -10.5)" style="" class="label"><rect/><foreignObject height="21" width="233.125"><div style="display: inline-block; white-space: nowrap;" xmlns="http://www.w3.org/1999/xhtml"><span class="nodeLabel">Pre-Consultation Coordinator</span></div></foreignObject></g></g></g></g></g></svg>